<?xml version="1.0" encoding="UTF-8" standalone="no"?>
<!DOCTYPE svg PUBLIC "-//W3C//DTD SVG 1.1//EN" "http://www.w3.org/Graphics/SVG/1.1/DTD/svg11.dtd">
<svg version="1.1" xmlns="http://www.w3.org/2000/svg" xmlns:xlink="http://www.w3.org/1999/xlink" preserveAspectRatio="xMidYMid meet" viewBox="0 0 500 300" width="500" height="300"><defs><path d="M0 0L500 0L500 300L0 300L0 0Z" id="akQs9R4hv"></path><path d="M360.99 63.83C368.91 67.53 372.34 76.94 368.64 84.86C348.85 127.31 296.16 240.31 276.36 282.76C272.67 290.68 263.26 294.1 255.34 290.41C229.2 278.22 165.14 248.35 139.01 236.17C131.09 232.47 127.66 223.06 131.36 215.14C151.15 172.69 203.84 59.69 223.64 17.24C227.33 9.32 236.74 5.9 244.66 9.59C270.8 21.78 334.86 51.65 360.99 63.83Z" id="b1aQtcPS3Z"></path><path d="M354.68 66.41C362.42 70.01 365.76 79.21 362.16 86.95C360.08 91.4 360.39 90.73 358.31 95.18C354.71 102.92 345.51 106.27 337.77 102.66C313.39 91.29 254.23 63.7 229.84 52.33C222.11 48.72 218.76 39.53 222.37 31.79C224.44 27.34 224.13 28 226.21 23.55C229.82 15.82 239.01 12.47 246.75 16.08C271.14 27.45 330.29 55.04 354.68 66.41Z" id="eRAjZnQ1R"></path><path d="M320.97 149.99C326.32 152.48 328.63 158.84 326.14 164.19C314.36 189.44 283.55 255.52 271.77 280.77C269.28 286.12 262.93 288.43 257.58 285.94C232.33 274.16 166.25 243.35 141 231.57C135.65 229.08 133.34 222.72 135.83 217.38C147.6 192.12 178.42 126.05 190.19 100.79C192.69 95.45 199.04 93.13 204.39 95.63C229.64 107.4 295.72 138.21 320.97 149.99Z" id="c3vzgwJv8F"></path><path d="M286.95 219.64C290.5 221.29 292.03 225.51 290.38 229.05C288.34 233.43 285.2 240.15 283.16 244.53C281.51 248.08 277.29 249.61 273.74 247.96C269.36 245.92 262.64 242.78 258.26 240.74C254.72 239.09 253.18 234.87 254.84 231.33C256.88 226.95 260.01 220.23 262.06 215.85C263.71 212.3 267.93 210.77 271.47 212.42C275.85 214.46 282.57 217.6 286.95 219.64Z" id="h1NiGigsd3"></path><path d="M203.71 140.82C207.26 142.48 208.79 146.69 207.14 150.24C205.09 154.62 201.96 161.34 199.92 165.72C198.27 169.27 194.05 170.8 190.5 169.15C186.12 167.1 179.4 163.97 175.02 161.93C171.48 160.27 169.94 156.06 171.6 152.51C173.64 148.13 176.77 141.41 178.82 137.03C180.47 133.49 184.68 131.95 188.23 133.61C192.61 135.65 199.33 138.78 203.71 140.82Z" id="faeTMonpTV"></path><path d="M188.39 173.68C191.94 175.33 193.47 179.55 191.82 183.09C189.77 187.47 186.64 194.19 184.6 198.57C182.95 202.12 178.73 203.65 175.18 202C170.8 199.96 164.08 196.82 159.7 194.78C156.16 193.13 154.62 188.91 156.28 185.37C158.32 180.99 161.45 174.27 163.5 169.89C165.15 166.34 169.36 164.81 172.91 166.46C177.29 168.5 184.01 171.64 188.39 173.68Z" id="al0qubgEY"></path><path d="M219.03 107.97C222.58 109.62 224.11 113.84 222.46 117.39C220.41 121.77 217.28 128.49 215.24 132.87C213.59 136.41 209.37 137.95 205.82 136.29C201.44 134.25 194.72 131.12 190.34 129.07C186.8 127.42 185.26 123.21 186.92 119.66C188.96 115.28 192.09 108.56 194.14 104.18C195.79 100.63 200 99.1 203.55 100.75C207.93 102.8 214.65 105.93 219.03 107.97Z" id="bzUxkm0BS"></path><path d="M236.56 156.14C240.11 157.8 241.64 162.01 239.99 165.56C237.95 169.94 234.82 176.66 232.77 181.04C231.12 184.59 226.9 186.12 223.36 184.47C218.98 182.42 212.26 179.29 207.88 177.25C204.33 175.59 202.8 171.38 204.45 167.83C206.49 163.45 209.63 156.73 211.67 152.35C213.32 148.81 217.54 147.27 221.08 148.93C225.46 150.97 232.18 154.1 236.56 156.14Z" id="brozordOp"></path><path d="M221.24 189C224.79 190.65 226.32 194.87 224.67 198.41C222.63 202.79 219.5 209.51 217.45 213.89C215.8 217.44 211.58 218.97 208.04 217.32C203.66 215.28 196.94 212.14 192.56 210.1C189.01 208.45 187.48 204.23 189.13 200.69C191.17 196.31 194.31 189.59 196.35 185.21C198 181.66 202.22 180.13 205.76 181.78C210.14 183.82 216.86 186.96 221.24 189Z" id="dfEd2LRu2"></path><path d="M205.92 221.85C209.47 223.51 211 227.72 209.35 231.27C207.31 235.65 204.18 242.37 202.13 246.75C200.48 250.29 196.26 251.83 192.72 250.17C188.34 248.13 181.62 245 177.24 242.96C173.69 241.3 172.16 237.09 173.81 233.54C175.85 229.16 178.99 222.44 181.03 218.06C182.68 214.51 186.9 212.98 190.44 214.63C194.82 216.68 201.54 219.81 205.92 221.85Z" id="cMV61Bz5e"></path><path d="M269.42 171.46C272.96 173.12 274.5 177.33 272.84 180.88C270.8 185.26 267.67 191.98 265.63 196.36C263.97 199.91 259.76 201.44 256.21 199.79C251.83 197.74 245.11 194.61 240.73 192.57C237.18 190.91 235.65 186.7 237.3 183.15C239.35 178.77 242.48 172.05 244.52 167.67C246.18 164.13 250.39 162.59 253.94 164.25C258.32 166.29 265.04 169.42 269.42 171.46Z" id="b3ucPSM8F5"></path><path d="M254.1 204.32C257.64 205.97 259.18 210.19 257.52 213.73C255.48 218.11 252.35 224.83 250.31 229.21C248.65 232.76 244.44 234.29 240.89 232.64C236.51 230.6 229.79 227.46 225.41 225.42C221.86 223.77 220.33 219.55 221.98 216.01C224.03 211.63 227.16 204.91 229.2 200.53C230.86 196.98 235.07 195.45 238.62 197.1C243 199.14 249.72 202.28 254.1 204.32Z" id="cRDW96jOs"></path><path d="M264.64 249.23C272.05 252.69 275.25 261.49 271.8 268.9C270.41 271.88 272.49 267.42 271.1 270.4C267.65 277.8 258.84 281.01 251.44 277.55C241.88 273.1 226.63 265.99 217.08 261.53C209.67 258.08 206.47 249.28 209.92 241.87C211.31 238.89 209.23 243.35 210.62 240.37C214.08 232.96 222.88 229.76 230.29 233.21C239.84 237.67 255.09 244.78 264.64 249.23Z" id="bp1YD1gOS"></path><path d="M302.27 186.78C305.82 188.44 307.35 192.65 305.7 196.2C303.66 200.58 300.52 207.3 298.48 211.68C296.83 215.23 292.61 216.76 289.06 215.11C284.68 213.06 277.96 209.93 273.58 207.89C270.04 206.23 268.5 202.02 270.16 198.47C272.2 194.09 275.33 187.37 277.38 182.99C279.03 179.45 283.25 177.91 286.79 179.57C291.17 181.61 297.89 184.74 302.27 186.78Z" id="b2yFF9FC9E"></path><path d="M317.59 153.93C321.14 155.58 322.67 159.8 321.02 163.35C318.98 167.73 315.84 174.45 313.8 178.83C312.15 182.37 307.93 183.91 304.38 182.25C300 180.21 293.28 177.08 288.9 175.03C285.36 173.38 283.82 169.17 285.48 165.62C287.52 161.24 290.65 154.52 292.7 150.14C294.35 146.59 298.57 145.06 302.11 146.71C306.49 148.75 313.21 151.89 317.59 153.93Z" id="m1Lka8xu4c"></path><path d="M284.74 138.61C288.28 140.26 289.82 144.48 288.16 148.03C286.12 152.41 282.99 159.13 280.95 163.51C279.29 167.05 275.08 168.59 271.53 166.93C267.15 164.89 260.43 161.76 256.05 159.71C252.5 158.06 250.97 153.85 252.62 150.3C254.67 145.92 257.8 139.2 259.84 134.82C261.5 131.27 265.71 129.74 269.26 131.39C273.64 133.43 280.36 136.57 284.74 138.61Z" id="b1mUlHobDS"></path><path d="M251.88 123.29C255.43 124.94 256.96 129.16 255.31 132.71C253.27 137.09 250.13 143.81 248.09 148.19C246.44 151.73 242.22 153.27 238.68 151.61C234.3 149.57 227.58 146.44 223.2 144.39C219.65 142.74 218.12 138.53 219.77 134.98C221.81 130.6 224.95 123.88 226.99 119.5C228.64 115.95 232.86 114.42 236.4 116.07C240.78 118.11 247.5 121.25 251.88 123.29Z" id="aOtyKUGch"></path></defs><g><g><g><use xlink:href="#akQs9R4hv" opacity="1" fill="#ff7a14" fill-opacity="1"></use></g><g><g><use xlink:href="#b1aQtcPS3Z" opacity="1" fill="#e06100" fill-opacity="1"></use></g><g><use xlink:href="#eRAjZnQ1R" opacity="1" fill="#ff7a14" fill-opacity="1"></use></g><g><use xlink:href="#c3vzgwJv8F" opacity="1" fill="#ff7a14" fill-opacity="1"></use></g><g><g><use xlink:href="#h1NiGigsd3" opacity="1" fill="#e06100" fill-opacity="1"></use></g><g><use xlink:href="#faeTMonpTV" opacity="1" fill="#e06100" fill-opacity="1"></use></g><g><use xlink:href="#al0qubgEY" opacity="1" fill="#e06100" fill-opacity="1"></use></g><g><use xlink:href="#bzUxkm0BS" opacity="1" fill="#e06100" fill-opacity="1"></use></g><g><use xlink:href="#brozordOp" opacity="1" fill="#e06100" fill-opacity="1"></use></g><g><use xlink:href="#dfEd2LRu2" opacity="1" fill="#e06100" fill-opacity="1"></use></g><g><use xlink:href="#cMV61Bz5e" opacity="1" fill="#e06100" fill-opacity="1"></use></g><g><use xlink:href="#b3ucPSM8F5" opacity="1" fill="#e06100" fill-opacity="1"></use></g><g><use xlink:href="#cRDW96jOs" opacity="1" fill="#e06100" fill-opacity="1"></use></g><g><use xlink:href="#bp1YD1gOS" opacity="1" fill="#e06100" fill-opacity="1"></use></g><g><use xlink:href="#b2yFF9FC9E" opacity="1" fill="#e06100" fill-opacity="1"></use></g><g><use xlink:href="#m1Lka8xu4c" opacity="1" fill="#e06100" fill-opacity="1"></use></g><g><use xlink:href="#b1mUlHobDS" opacity="1" fill="#e06100" fill-opacity="1"></use></g><g><use xlink:href="#aOtyKUGch" opacity="1" fill="#e06100" fill-opacity="1"></use></g></g></g></g></g></svg>