<?xml version="1.0" encoding="UTF-8" standalone="no"?>
<!DOCTYPE svg PUBLIC "-//W3C//DTD SVG 1.1//EN" "http://www.w3.org/Graphics/SVG/1.1/DTD/svg11.dtd">
<svg version="1.1" xmlns="http://www.w3.org/2000/svg" xmlns:xlink="http://www.w3.org/1999/xlink" preserveAspectRatio="xMidYMid meet" viewBox="0 0 640 640" width="640" height="640"><defs><path d="M0 64L128 64L128 576L0 576L0 64Z" id="d2VytFuTU"></path><path d="M128 576C128 611.32 99.32 640 64 640C28.68 640 0 611.32 0 576C0 540.68 28.68 512 64 512C99.32 512 128 540.68 128 576Z" id="iASlPBlf"></path><path d="M64 256L576 256L576 384L64 384L64 256Z" id="b7kd9bDIgf"></path><path d="M512 64L640 64L640 576L512 576L512 64Z" id="a13AF0DYZx"></path><path d="M128 64C128 99.32 99.32 128 64 128C28.68 128 0 99.32 0 64C0 28.68 28.68 0 64 0C99.32 0 128 28.68 128 64Z" id="flgl7t3o3"></path><path d="M640 64C640 99.32 611.32 128 576 128C540.68 128 512 99.32 512 64C512 28.68 540.68 0 576 0C611.32 0 640 28.68 640 64Z" id="h3fdJwGFzY"></path><path d="M64 512L576 512L576 640L64 640L64 512Z" id="c2ovtYuXdl"></path><path d="M0 0L64 0L64 64L0 64L0 0Z" id="dezXQemA8"></path><path d="M640 576C640 611.32 611.32 640 576 640C540.68 640 512 611.32 512 576C512 540.68 540.68 512 576 512C611.32 512 640 540.68 640 576Z" id="m12cZxLx1v"></path><path d="M576 0L640 0L640 64L576 64L576 0Z" id="b3sRP6xPzB"></path></defs><g><g><g><use xlink:href="#d2VytFuTU" opacity="1" fill="#f7fff7" fill-opacity="1"></use></g><g><use xlink:href="#iASlPBlf" opacity="1" fill="#f7fff7" fill-opacity="1"></use></g><g><use xlink:href="#b7kd9bDIgf" opacity="1" fill="#f7fff7" fill-opacity="1"></use></g><g><use xlink:href="#a13AF0DYZx" opacity="1" fill="#f7fff7" fill-opacity="1"></use></g><g><use xlink:href="#flgl7t3o3" opacity="1" fill="#f7fff7" fill-opacity="1"></use></g><g><use xlink:href="#h3fdJwGFzY" opacity="1" fill="#f7fff7" fill-opacity="1"></use></g><g><use xlink:href="#c2ovtYuXdl" opacity="1" fill="#f7fff7" fill-opacity="1"></use></g><g><use xlink:href="#dezXQemA8" opacity="1" fill="#f7fff7" fill-opacity="1"></use></g><g><use xlink:href="#m12cZxLx1v" opacity="1" fill="#f7fff7" fill-opacity="1"></use></g><g><use xlink:href="#b3sRP6xPzB" opacity="1" fill="#f7fff7" fill-opacity="1"></use></g></g></g></svg>