<?xml version="1.0" encoding="UTF-8" standalone="no"?>
<!DOCTYPE svg PUBLIC "-//W3C//DTD SVG 1.1//EN" "http://www.w3.org/Graphics/SVG/1.1/DTD/svg11.dtd">
<svg version="1.1" xmlns="http://www.w3.org/2000/svg" xmlns:xlink="http://www.w3.org/1999/xlink" preserveAspectRatio="xMidYMid meet" viewBox="0 0 500 300" width="500" height="300">
    <defs>
        <path d="M0 0L502 0L502 300L0 300L0 0Z" id="bYtjcj2It"></path>
        <path d="M342.68 191.76L387.96 94.66L417.09 108.24L371.81 205.35L342.68 191.76Z" id="hDCO3D6MA"></path>
        <path d="M311.22 170.5C314.83 162.76 324.02 159.42 331.76 163.02C348.37 170.77 384.23 187.49 400.85 195.24C408.58 198.85 411.93 208.04 408.32 215.78C406.01 220.75 405.59 221.64 403.27 226.61C399.66 234.34 390.47 237.69 382.73 234.08C366.12 226.33 330.26 209.62 313.64 201.87C305.91 198.26 302.56 189.07 306.17 181.33C308.49 176.36 308.9 175.47 311.22 170.5Z" id="aIcd7R8Vs"></path>
        <path d="M356.5 73.39C360.11 65.66 369.3 62.31 377.04 65.92C393.66 73.67 429.51 90.39 446.13 98.14C453.86 101.74 457.21 110.94 453.6 118.67C451.29 123.64 450.87 124.54 448.55 129.51C444.94 137.24 435.75 140.59 428.02 136.98C411.4 129.23 375.54 112.51 358.92 104.76C351.19 101.16 347.84 91.96 351.45 84.23C353.77 79.26 354.18 78.36 356.5 73.39Z" id="ajvDIFZtI"></path>
        <path d="M290.71 193.95C277.34 222.63 243.2 235.05 214.52 221.68C185.84 208.31 173.42 174.17 186.79 145.49C200.16 116.81 234.3 104.39 262.98 117.76C291.66 131.13 304.08 165.27 290.71 193.95Z" id="aZSaKUHJ"></path>
        <path d="M303.89 97.85C307.48 99.52 309.03 103.79 307.36 107.37C306.75 108.67 307.96 106.07 307.36 107.37C305.69 110.96 301.42 112.51 297.83 110.84C286.14 105.39 257.57 92.06 245.88 86.61C242.29 84.94 240.74 80.67 242.41 77.09C243.02 75.79 241.8 78.39 242.41 77.09C244.08 73.5 248.35 71.95 251.93 73.62C263.62 79.07 292.2 92.4 303.89 97.85Z" id="aRnOFW0XZ"></path>
        <path d="M242.41 77.09L255.4 83.14L237.23 122.11L224.24 116.06L242.41 77.09Z" id="j2nvvu3Glu"></path>
        <path d="M294.37 101.32L307.36 107.37L289.19 146.34L276.2 140.29L294.37 101.32Z" id="b1q2xFGX01"></path>
        <path d="M112.47 100.09L67.19 197.2L40 184.52L112.47 100.09Z" id="b1TsbGTIfg"></path>
        <path d="M166.85 125.45L121.57 222.55L148.76 235.23L166.85 125.45Z" id="a1yCSJz8tU"></path>
        <path d="M139.65 89.12L157.78 97.58L148.72 117L130.6 108.54L139.65 89.12Z" id="b1FdtQSmN2"></path>
        <path d="M112.47 100.09L166.85 125.45L121.57 222.55L67.19 197.2L112.47 100.09Z" id="a2DVZTZU00"></path>
        <path d="M175.25 82.08C180.62 84.58 182.94 90.95 180.43 96.32C179.53 98.26 181.34 94.37 180.43 96.32C177.93 101.68 171.56 104 166.2 101.5C157.26 97.33 140.17 89.36 131.24 85.2C125.88 82.7 123.56 76.32 126.06 70.96C126.96 69.02 125.15 72.9 126.06 70.96C128.56 65.6 134.93 63.28 140.3 65.78C149.23 69.94 166.32 77.91 175.25 82.08Z" id="c23d50DEQ"></path>
    </defs>
    <g>
        <use xlink:href="#bYtjcj2It" opacity="1" fill="#48a9ea" fill-opacity="1"></use>
        <use xlink:href="#hDCO3D6MA" opacity="1" fill="#1a90e0" fill-opacity="1"></use>
        <use xlink:href="#aIcd7R8Vs" opacity="1" fill="#1a90e0" fill-opacity="1"></use>
        <use xlink:href="#ajvDIFZtI" opacity="1" fill="#1a90e0" fill-opacity="1"></use>
        <use xlink:href="#aZSaKUHJ" opacity="1" fill="#1a90e0" fill-opacity="1"></use>
        <use xlink:href="#aRnOFW0XZ" opacity="1" fill="#1a90e0" fill-opacity="1"></use>
        <use xlink:href="#j2nvvu3Glu" opacity="1" fill="#1a90e0" fill-opacity="1"></use>
        <use xlink:href="#b1q2xFGX01" opacity="1" fill="#1a90e0" fill-opacity="1"></use>
        <use xlink:href="#b1TsbGTIfg" opacity="1" fill="#1a90e0" fill-opacity="1"></use>
        <use xlink:href="#a1yCSJz8tU" opacity="1" fill="#1a90e0" fill-opacity="1"></use>
        <use xlink:href="#b1FdtQSmN2" opacity="1" fill="#1a90e0" fill-opacity="1"></use>
        <use xlink:href="#a2DVZTZU00" opacity="1" fill="#1a90e0" fill-opacity="1"></use>
        <use xlink:href="#c23d50DEQ" opacity="1" fill="#1a90e0" fill-opacity="1"></use>
    </g>
</svg>