<?xml version="1.0" encoding="UTF-8" standalone="no"?>
<!DOCTYPE svg PUBLIC "-//W3C//DTD SVG 1.1//EN" "http://www.w3.org/Graphics/SVG/1.1/DTD/svg11.dtd">
<svg version="1.1" xmlns="http://www.w3.org/2000/svg" xmlns:xlink="http://www.w3.org/1999/xlink" preserveAspectRatio="xMidYMid meet" viewBox="0 0 500 300" width="500" height="300"><defs><path d="M451 300C451 396.59 361.38 475 251 475C140.62 475 51 396.59 51 300C51 203.41 140.62 125 251 125C361.38 125 451 203.41 451 300Z" id="bVCZ2qE6s"></path><mask id="maskad58XfwOP" x="1" y="75" width="500" height="450" maskUnits="userSpaceOnUse"><rect x="1" y="75" width="500" height="450" fill="white"></rect><use xlink:href="#bVCZ2qE6s" opacity="1" fill="black"></use></mask><path d="M250 306L296.63 206" id="f1vHSlNSEu"></path><path d="M271 151.25C271 160.91 262.04 168.75 251 168.75C239.96 168.75 231 160.91 231 151.25C231 141.59 239.96 133.75 251 133.75C262.04 133.75 271 141.59 271 151.25Z" id="aYiIg9k1r"></path><path d="M101 300C101 309.66 92.04 317.5 81 317.5C69.96 317.5 61 309.66 61 300C61 290.34 69.96 282.5 81 282.5C92.04 282.5 101 290.34 101 300Z" id="a9hNjxuc6G"></path><path d="M134.25 213.81C134.25 223.47 125.29 231.31 114.25 231.31C103.21 231.31 94.25 223.47 94.25 213.81C94.25 204.15 103.21 196.31 114.25 196.31C125.29 196.31 134.25 204.15 134.25 213.81Z" id="cgnJBffYw"></path><path d="M110.62 255.16C110.62 264.81 101.66 272.66 90.62 272.66C79.59 272.66 70.62 264.81 70.62 255.16C70.62 245.5 79.59 237.66 90.62 237.66C101.66 237.66 110.62 245.5 110.62 255.16Z" id="b11e2jerWD"></path><path d="M174.25 178.81C174.25 188.47 165.29 196.31 154.25 196.31C143.21 196.31 134.25 188.47 134.25 178.81C134.25 169.15 143.21 161.31 154.25 161.31C165.29 161.31 174.25 169.15 174.25 178.81Z" id="b31JD2Bl2B"></path><path d="M222.5 158.25C222.5 167.91 213.54 175.75 202.5 175.75C191.46 175.75 182.5 167.91 182.5 158.25C182.5 148.59 191.46 140.75 202.5 140.75C213.54 140.75 222.5 148.59 222.5 158.25Z" id="a4pBXyPzP"></path><path d="M401 298.25C401 307.91 409.96 315.75 421 315.75C432.04 315.75 441 307.91 441 298.25C441 288.59 432.04 280.75 421 280.75C409.96 280.75 401 288.59 401 298.25Z" id="aNTwcxbyK"></path><path d="M391.38 253.41C391.38 263.06 400.34 270.91 411.38 270.91C422.41 270.91 431.38 263.06 431.38 253.41C431.38 243.75 422.41 235.91 411.38 235.91C400.34 235.91 391.38 243.75 391.38 253.41Z" id="a7pkpMxLZt"></path><path d="M367.75 212.06C367.75 221.72 376.71 229.56 387.75 229.56C398.79 229.56 407.75 221.72 407.75 212.06C407.75 202.4 398.79 194.56 387.75 194.56C376.71 194.56 367.75 202.4 367.75 212.06Z" id="e2iatZsmiw"></path><path d="M327.75 177.06C327.75 186.72 336.71 194.56 347.75 194.56C358.79 194.56 367.75 186.72 367.75 177.06C367.75 167.4 358.79 159.56 347.75 159.56C336.71 159.56 327.75 167.4 327.75 177.06Z" id="aavxaF2u1"></path><path d="M281.5 158.25C281.5 167.91 290.46 175.75 301.5 175.75C312.54 175.75 321.5 167.91 321.5 158.25C321.5 148.59 312.54 140.75 301.5 140.75C290.46 140.75 281.5 148.59 281.5 158.25Z" id="b18xwMC1Sf"></path><path d="M309.13 206C309.13 212.9 303.53 218.5 296.63 218.5C289.73 218.5 284.13 212.9 284.13 206C284.13 199.1 289.73 193.5 296.63 193.5C303.53 193.5 309.13 199.1 309.13 206Z" id="d2oTEecws"></path></defs><g><g><g><g mask="url(#maskad58XfwOP)"><use xlink:href="#bVCZ2qE6s" opacity="1" fill-opacity="0" stroke="#f43ec9" stroke-width="50" stroke-opacity="1"></use></g></g><g><g><use xlink:href="#f1vHSlNSEu" opacity="1" fill-opacity="0" stroke="#f43ec9" stroke-width="25" stroke-opacity="1"></use></g></g><g><use xlink:href="#aYiIg9k1r" opacity="1" fill="#f43ec9" fill-opacity="1"></use></g><g><use xlink:href="#a9hNjxuc6G" opacity="1" fill="#f43ec9" fill-opacity="1"></use></g><g><use xlink:href="#cgnJBffYw" opacity="1" fill="#f43ec9" fill-opacity="1"></use></g><g><use xlink:href="#b11e2jerWD" opacity="1" fill="#f43ec9" fill-opacity="1"></use></g><g><use xlink:href="#b31JD2Bl2B" opacity="1" fill="#f43ec9" fill-opacity="1"></use></g><g><use xlink:href="#a4pBXyPzP" opacity="1" fill="#f43ec9" fill-opacity="1"></use></g><g><use xlink:href="#aNTwcxbyK" opacity="1" fill="#f43ec9" fill-opacity="1"></use></g><g><use xlink:href="#a7pkpMxLZt" opacity="1" fill="#f43ec9" fill-opacity="1"></use></g><g><use xlink:href="#e2iatZsmiw" opacity="1" fill="#f43ec9" fill-opacity="1"></use></g><g><use xlink:href="#aavxaF2u1" opacity="1" fill="#f43ec9" fill-opacity="1"></use></g><g><use xlink:href="#b18xwMC1Sf" opacity="1" fill="#f43ec9" fill-opacity="1"></use></g><g><use xlink:href="#d2oTEecws" opacity="1" fill="#f43ec9" fill-opacity="1"></use></g></g></g></svg>